<svg xmlns="http://www.w3.org/2000/svg" xmlns:xlink="http://www.w3.org/1999/xlink" version="1.1" width="256" height="256" viewBox="0 0 256 256" xml:space="preserve">

<defs>
</defs>
<g style="stroke: none; stroke-width: 0; stroke-dasharray: none; stroke-linecap: butt; stroke-linejoin: miter; stroke-miterlimit: 10; fill: none; fill-rule: nonzero; opacity: 1;" transform="translate(1.4065934065934016 1.4065934065934016) scale(2.81 2.81)" >
	<path d="M 34.893 58.777 c 0 -8.596 3.938 -16.272 10.107 -21.325 c -4.751 -3.892 -10.825 -6.229 -17.446 -6.229 C 12.336 31.223 0 43.559 0 58.777 S 12.336 86.33 27.554 86.33 c 6.621 0 12.695 -2.337 17.446 -6.229 C 38.831 75.049 34.893 67.373 34.893 58.777 z" style="stroke: none; stroke-width: 1; stroke-dasharray: none; stroke-linecap: butt; stroke-linejoin: miter; stroke-miterlimit: 10; fill: rgb(242,112,112); fill-rule: nonzero; opacity: 1;" transform=" matrix(1 0 0 1 0 0) " stroke-linecap="round" />
	<path d="M 72.482 33.117 C 71.508 47.45 59.58 58.777 45 58.777 c -3.542 0 -6.925 -0.676 -10.035 -1.893 c -0.043 0.626 -0.072 1.256 -0.072 1.893 c 0 15.217 12.336 27.554 27.554 27.554 S 90 73.994 90 58.777 C 90 47.102 82.735 37.13 72.482 33.117 z" style="stroke: none; stroke-width: 1; stroke-dasharray: none; stroke-linecap: butt; stroke-linejoin: miter; stroke-miterlimit: 10; fill: rgb(33,9,214); fill-rule: nonzero; opacity: 1;" transform=" matrix(1 0 0 1 0 0) " stroke-linecap="round" />
	<path d="M 45 3.67 c -15.217 0 -27.554 12.336 -27.554 27.554 c 0 0.637 0.029 1.267 0.072 1.893 c 3.111 -1.218 6.493 -1.893 10.035 -1.893 c 14.58 0 26.508 11.327 27.482 25.66 c 10.253 -4.013 17.518 -13.985 17.518 -25.66 C 72.554 16.006 60.217 3.67 45 3.67 z" style="stroke: none; stroke-width: 1; stroke-dasharray: none; stroke-linecap: butt; stroke-linejoin: miter; stroke-miterlimit: 10; fill: rgb(255,202,85); fill-rule: nonzero; opacity: 1;" transform=" matrix(1 0 0 1 0 0) " stroke-linecap="round" />
	<path d="M 82.023 64.059 H 60.977 c -0.553 0 -1 -0.447 -1 -1 s 0.447 -1 1 -1 h 21.047 c 0.553 0 1 0.447 1 1 S 82.576 64.059 82.023 64.059 z" style="stroke: none; stroke-width: 1; stroke-dasharray: none; stroke-linecap: butt; stroke-linejoin: miter; stroke-miterlimit: 10; fill: rgb(96,207,221); fill-rule: nonzero; opacity: 1;" transform=" matrix(1 0 0 1 0 0) " stroke-linecap="round" />
	<path d="M 82.023 70.059 H 60.977 c -0.553 0 -1 -0.447 -1 -1 s 0.447 -1 1 -1 h 21.047 c 0.553 0 1 0.447 1 1 S 82.576 70.059 82.023 70.059 z" style="stroke: none; stroke-width: 1; stroke-dasharray: none; stroke-linecap: butt; stroke-linejoin: miter; stroke-miterlimit: 10; fill: rgb(96,207,221); fill-rule: nonzero; opacity: 1;" transform=" matrix(1 0 0 1 0 0) " stroke-linecap="round" />
	<path d="M 19.023 64.059 H 7.977 c -0.552 0 -1 -0.447 -1 -1 s 0.448 -1 1 -1 h 11.047 c 0.552 0 1 0.447 1 1 S 19.576 64.059 19.023 64.059 z" style="stroke: none; stroke-width: 1; stroke-dasharray: none; stroke-linecap: butt; stroke-linejoin: miter; stroke-miterlimit: 10; fill: rgb(216,95,75); fill-rule: nonzero; opacity: 1;" transform=" matrix(1 0 0 1 0 0) " stroke-linecap="round" />
	<path d="M 29.023 70.059 H 7.977 c -0.552 0 -1 -0.447 -1 -1 s 0.448 -1 1 -1 h 21.047 c 0.552 0 1 0.447 1 1 S 29.576 70.059 29.023 70.059 z" style="stroke: none; stroke-width: 1; stroke-dasharray: none; stroke-linecap: butt; stroke-linejoin: miter; stroke-miterlimit: 10; fill: rgb(216,95,75); fill-rule: nonzero; opacity: 1;" transform=" matrix(1 0 0 1 0 0) " stroke-linecap="round" />
	<path d="M 55.523 18.059 H 34.477 c -0.552 0 -1 -0.448 -1 -1 s 0.448 -1 1 -1 h 21.047 c 0.553 0 1 0.448 1 1 S 56.076 18.059 55.523 18.059 z" style="stroke: none; stroke-width: 1; stroke-dasharray: none; stroke-linecap: butt; stroke-linejoin: miter; stroke-miterlimit: 10; fill: rgb(218,173,58); fill-rule: nonzero; opacity: 1;" transform=" matrix(1 0 0 1 0 0) " stroke-linecap="round" />
	<path d="M 47.523 24.059 H 34.477 c -0.552 0 -1 -0.448 -1 -1 s 0.448 -1 1 -1 h 13.047 c 0.553 0 1 0.448 1 1 S 48.076 24.059 47.523 24.059 z" style="stroke: none; stroke-width: 1; stroke-dasharray: none; stroke-linecap: butt; stroke-linejoin: miter; stroke-miterlimit: 10; fill: rgb(218,173,58); fill-rule: nonzero; opacity: 1;" transform=" matrix(1 0 0 1 0 0) " stroke-linecap="round" />
</g>
</svg>